<?xml version="1.0" encoding="UTF-8"?>
<svg width="70" height="70" viewBox="0 0 70 70" xmlns="http://www.w3.org/2000/svg">
<path d="M58.611 53.7203C60.3786 55.4879 61.8036 56.7448 62.886 57.4911C64.0019 58.2037 64.9812 58.4434 65.8238 58.2104C66.6663 57.9773 67.6423 57.3062 68.7515 56.1969C68.8523 56.0961 69.0856 56.2285 69.4513 56.5943C69.817 56.96 69.9495 57.1932 69.8486 57.2941C69.0083 58.1344 68.0367 59.0451 66.9337 60.0262C65.8307 61.0072 64.6406 62.1364 63.3633 63.4137C62.1868 64.5902 61.0912 65.7467 60.0766 66.8833C59.0619 68.0199 58.1344 69.0084 57.294 69.8487C57.1932 69.9495 56.9599 69.8171 56.5942 69.4514C56.2285 69.0857 56.0961 68.8524 56.1969 68.7515C57.2725 67.6759 57.9437 66.7 58.2103 65.8238C58.477 64.9476 58.2372 63.9684 57.491 62.886C56.7784 61.77 55.5383 60.3283 53.7707 58.5606L11.4393 16.2293C9.67169 14.4617 8.26038 13.252 7.20537 12.6004C6.12301 11.8541 5.14374 11.6144 4.26755 11.881C3.33041 12.0868 2.32403 12.7274 1.2484 13.8031C1.14756 13.9039 0.914282 13.7715 0.548569 13.4057C0.182856 13.04 0.0504201 12.8068 0.15126 12.7059C0.991595 11.8656 2.01053 10.9686 3.20806 10.0148C4.34464 9.00015 5.50116 7.90458 6.67763 6.72811C7.95494 5.4508 9.08413 4.26066 10.0652 3.15769C11.0189 1.96016 11.8991 0.958034 12.7059 0.151312C12.8067 0.0504725 13.04 0.182909 13.4057 0.548622C13.7714 0.914334 13.9038 1.14761 13.803 1.24845C12.7274 2.32408 12.0867 3.33046 11.881 4.2676C11.7089 5.17114 11.9791 6.18088 12.6917 7.29685C13.438 8.3792 14.6949 9.80418 16.4625 11.5718L58.611 53.7203Z" />
<path d="M16.2796 58.611C14.512 60.3786 13.2551 61.8036 12.5089 62.886C11.7963 64.0019 11.5565 64.9812 11.7896 65.8238C12.0226 66.6663 12.6938 67.6423 13.803 68.7515C13.9038 68.8523 13.7714 69.0856 13.4057 69.4513C13.04 69.817 12.8067 69.9495 12.7059 69.8486C11.8655 69.0083 10.9548 68.0367 9.97377 66.9337C8.9927 65.8307 7.86352 64.6406 6.58621 63.3633C5.40974 62.1868 4.25321 61.0912 3.11663 60.0766C1.98005 59.0619 0.991595 58.1344 0.15126 57.294C0.0504195 57.1932 0.182854 56.9599 0.548568 56.5942C0.914281 56.2285 1.14756 56.0961 1.2484 56.1969C2.32403 57.2725 3.29994 57.9437 4.17613 58.2103C5.05232 58.477 6.03159 58.2372 7.11394 57.491C8.2299 56.7784 9.67169 55.5383 11.4393 53.7707L53.7707 11.4393C55.5383 9.67169 56.7479 8.26038 57.3996 7.20537C58.1458 6.12301 58.3856 5.14374 58.1189 4.26755C57.9132 3.33041 57.2725 2.32403 56.1969 1.2484C56.0961 1.14756 56.2285 0.914282 56.5942 0.548569C56.9599 0.182856 57.1932 0.0504201 57.294 0.15126C58.1344 0.991595 59.0314 2.01053 59.9851 3.20806C60.9998 4.34464 62.0954 5.50116 63.2718 6.67763C64.5491 7.95494 65.7393 9.08413 66.8423 10.0652C68.0398 11.0189 69.0419 11.8991 69.8486 12.7059C69.9495 12.8067 69.817 13.04 69.4513 13.4057C69.0856 13.7714 68.8523 13.9038 68.7515 13.803C67.6759 12.7274 66.6695 12.0867 65.7323 11.881C64.8288 11.7089 63.8191 11.9791 62.7031 12.6917C61.6208 13.438 60.1958 14.6949 58.4282 16.4625L16.2796 58.611Z" />
</svg>