<?xml version="1.0" encoding="UTF-8"?>
<svg width="80" height="70" viewBox="0 0 80 70" xmlns="http://www.w3.org/2000/svg">
<path d="M10.368 12.4235C7.89333 12.4235 6.016 12.5412 4.736 12.7765C3.456 13.0588 2.60266 13.5765 2.176 14.3294C1.74933 15.0824 1.536 16.2353 1.536 17.7882C1.536 17.9294 1.27999 18 0.767995 18C0.255995 18 -1.87923e-06 17.9294 -1.86795e-06 17.7882C-1.77397e-06 16.6118 0.0426644 15.2941 0.127998 13.8353C0.213331 12.3765 0.255998 10.7529 0.255998 8.9647C0.255998 7.31765 0.213332 5.74118 0.127999 4.23529C0.0426654 2.72941 -5.57926e-07 1.38823 -4.6395e-07 0.211763C-4.52673e-07 0.0705864 0.255996 -1.90745e-06 0.767996 -1.8952e-06C1.28 -1.88295e-06 1.536 0.0705864 1.536 0.211763C1.536 1.71765 1.74933 2.87059 2.176 3.67059C2.60266 4.47059 3.456 4.98823 4.736 5.22353C6.016 5.50588 7.89333 5.64706 10.368 5.64706L69.632 5.64706C72.1067 5.64706 73.9413 5.50588 75.136 5.22353C76.416 4.98824 77.2693 4.47059 77.696 3.67059C78.208 2.87059 78.464 1.71765 78.464 0.211765C78.464 0.0705883 78.72 -3.0617e-08 79.232 -1.83702e-08C79.744 -6.1234e-09 80 0.0705883 80 0.211765C80 1.38824 79.9147 2.72941 79.744 4.23529C79.6587 5.74118 79.616 7.31765 79.616 8.96471C79.616 10.7529 79.6587 12.3765 79.744 13.8353C79.9147 15.3412 80 16.6588 80 17.7882C80 17.9294 79.744 18 79.232 18C78.72 18 78.464 17.9294 78.464 17.7882C78.464 16.2824 78.208 15.1294 77.696 14.3294C77.184 13.5765 76.288 13.0588 75.008 12.7765C73.728 12.5412 71.8507 12.4235 69.376 12.4235L10.368 12.4235Z" />
<path d="M10.368 38.4235C7.89333 38.4235 6.016 38.5412 4.736 38.7765C3.456 39.0588 2.60266 39.5765 2.176 40.3294C1.74933 41.0824 1.536 42.2353 1.536 43.7882C1.536 43.9294 1.27999 44 0.767995 44C0.255995 44 -1.87923e-06 43.9294 -1.86795e-06 43.7882C-1.77397e-06 42.6118 0.0426644 41.2941 0.127998 39.8353C0.213331 38.3765 0.255998 36.7529 0.255998 34.9647C0.255998 33.3176 0.213332 31.7412 0.127999 30.2353C0.0426654 28.7294 -5.57926e-07 27.3882 -4.6395e-07 26.2118C-4.52673e-07 26.0706 0.255996 26 0.767996 26C1.28 26 1.536 26.0706 1.536 26.2118C1.536 27.7176 1.74933 28.8706 2.176 29.6706C2.60266 30.4706 3.456 30.9882 4.736 31.2235C6.016 31.5059 7.89333 31.6471 10.368 31.6471L69.632 31.6471C72.1067 31.6471 73.9413 31.5059 75.136 31.2235C76.416 30.9882 77.2693 30.4706 77.696 29.6706C78.208 28.8706 78.464 27.7176 78.464 26.2118C78.464 26.0706 78.72 26 79.232 26C79.744 26 80 26.0706 80 26.2118C80 27.3882 79.9147 28.7294 79.744 30.2353C79.6587 31.7412 79.616 33.3176 79.616 34.9647C79.616 36.7529 79.6587 38.3765 79.744 39.8353C79.9147 41.3412 80 42.6588 80 43.7882C80 43.9294 79.744 44 79.232 44C78.72 44 78.464 43.9294 78.464 43.7882C78.464 42.2824 78.208 41.1294 77.696 40.3294C77.184 39.5765 76.288 39.0588 75.008 38.7765C73.728 38.5412 71.8507 38.4235 69.376 38.4235L10.368 38.4235Z" />
<path d="M10.368 64.4235C7.89333 64.4235 6.016 64.5412 4.736 64.7765C3.456 65.0588 2.60266 65.5765 2.176 66.3294C1.74933 67.0824 1.536 68.2353 1.536 69.7882C1.536 69.9294 1.27999 70 0.767995 70C0.255995 70 -1.87923e-06 69.9294 -1.86795e-06 69.7882C-1.77397e-06 68.6118 0.0426644 67.2941 0.127998 65.8353C0.213331 64.3765 0.255998 62.7529 0.255998 60.9647C0.255998 59.3176 0.213332 57.7412 0.127999 56.2353C0.0426654 54.7294 -5.57926e-07 53.3882 -4.6395e-07 52.2118C-4.52673e-07 52.0706 0.255996 52 0.767996 52C1.28 52 1.536 52.0706 1.536 52.2118C1.536 53.7176 1.74933 54.8706 2.176 55.6706C2.60266 56.4706 3.456 56.9882 4.736 57.2235C6.016 57.5059 7.89333 57.6471 10.368 57.6471L69.632 57.6471C72.1067 57.6471 73.9413 57.5059 75.136 57.2235C76.416 56.9882 77.2693 56.4706 77.696 55.6706C78.208 54.8706 78.464 53.7176 78.464 52.2118C78.464 52.0706 78.72 52 79.232 52C79.744 52 80 52.0706 80 52.2118C80 53.3882 79.9147 54.7294 79.744 56.2353C79.6587 57.7412 79.616 59.3176 79.616 60.9647C79.616 62.7529 79.6587 64.3765 79.744 65.8353C79.9147 67.3412 80 68.6588 80 69.7882C80 69.9294 79.744 70 79.232 70C78.72 70 78.464 69.9294 78.464 69.7882C78.464 68.2824 78.208 67.1294 77.696 66.3294C77.184 65.5765 76.288 65.0588 75.008 64.7765C73.728 64.5412 71.8507 64.4235 69.376 64.4235L10.368 64.4235Z" />
</svg>
</svg>